<?xml version="1.0" standalone="no"?>
<!DOCTYPE svg PUBLIC "-//W3C//DTD SVG 20010904//EN"
 "http://www.w3.org/TR/2001/REC-SVG-20010904/DTD/svg10.dtd">
<svg version="1.0" xmlns="http://www.w3.org/2000/svg"
 width="1148.000000pt" height="882.000000pt" viewBox="0 0 1148.000000 882.000000"
 preserveAspectRatio="xMidYMid meet">

<g transform="translate(0.000000,882.000000) scale(0.100000,-0.100000)"
fill="#000000" stroke="none">
<path d="M5110 7725 c0 -13 298 -311 304 -304 3 3 -64 74 -149 159 -85 85
-155 150 -155 145z"/>
<path d="M5710 7642 c0 -56 4 -74 15 -78 25 -10 45 16 45 55 0 28 -7 44 -30
66 l-30 29 0 -72z"/>
<path d="M6076 7491 c-25 -25 -37 -45 -33 -55 10 -26 30 -19 72 24 32 33 36
41 25 55 -18 21 -21 20 -64 -24z"/>
<path d="M4510 6431 c0 -435 19 -558 118 -765 214 -446 670 -723 1157 -703
141 6 213 20 348 68 84 30 87 33 71 50 -11 13 -22 16 -33 10 -43 -23 -314 -79
-388 -81 -28 0 -2 193 47 342 20 62 25 89 17 97 -20 20 -34 11 -47 -31 -23
-72 -30 -66 -30 24 0 82 -1 88 -27 108 l-28 22 -5 -114 c-5 -112 -5 -112 -19
-73 -20 58 -120 257 -141 280 -10 11 -30 38 -45 60 -38 57 -223 245 -241 245
-4 0 -30 18 -58 39 -51 40 -177 103 -291 146 -33 12 -126 33 -207 46 l-148 24
0 256 c0 235 -1 257 -18 272 -10 10 -22 17 -25 17 -4 0 -7 -152 -7 -339z m265
-288 c477 -104 848 -503 919 -986 24 -160 27 -149 -46 -141 -233 24 -440 105
-625 243 -166 123 -307 314 -393 530 -33 84 -79 349 -64 372 7 13 109 4 209
-18z"/>
<path d="M9161 1255 c-79 -25 -127 -91 -137 -192 -11 -101 28 -190 100 -234
42 -26 130 -26 173 1 89 54 95 178 11 230 -47 30 -151 25 -194 -9 -28 -22 -29
-23 -32 -3 -6 37 18 100 48 131 36 35 100 49 160 33 35 -9 40 -8 46 10 7 25 4
28 -43 39 -51 12 -80 10 -132 -6z m125 -246 c16 -15 24 -34 24 -56 0 -48 -16
-72 -57 -89 -90 -38 -185 47 -142 127 27 50 130 61 175 18z"/>
<path d="M2110 1035 l0 -225 25 0 25 0 0 160 c0 94 4 160 9 160 6 0 45 -58 87
-130 43 -71 83 -130 90 -130 12 0 72 91 136 208 16 28 34 52 38 52 5 0 11 -71
12 -157 3 -145 5 -158 22 -161 10 -2 22 0 27 5 6 6 7 96 3 226 -7 211 -8 217
-28 217 -21 -1 -39 -28 -162 -242 -22 -37 -42 -68 -46 -68 -4 0 -48 70 -99
155 -77 130 -96 155 -115 155 l-24 0 0 -225z"/>
<path d="M3052 1238 c3 -21 9 -23 81 -26 l77 -3 0 -199 0 -200 30 0 30 0 0
200 0 199 78 3 c71 3 77 5 80 26 l3 22 -191 0 -191 0 3 -22z"/>
<path d="M4456 1168 c-4 -51 -10 -103 -13 -115 -5 -22 -3 -23 73 -24 106 0
146 -15 158 -56 11 -41 -6 -86 -40 -102 -38 -17 -104 -13 -154 10 -42 19 -45
19 -57 3 -16 -22 -9 -32 41 -55 53 -24 149 -25 196 -1 95 47 106 182 18 228
-18 10 -65 19 -105 22 l-73 5 0 32 c0 18 3 47 6 64 l7 31 98 0 c99 0 99 0 99
25 l0 25 -124 0 -123 0 -7 -92z"/>
<path d="M5710 1235 c0 -23 3 -25 50 -25 l50 0 0 -200 0 -200 30 0 30 0 0 225
0 225 -80 0 c-79 0 -80 0 -80 -25z"/>
<path d="M6535 1193 c-27 -36 -70 -91 -95 -122 -67 -82 -80 -103 -80 -128 0
-23 2 -23 125 -23 l125 0 0 -55 c0 -54 0 -55 30 -55 30 0 30 1 30 55 l0 55 45
0 c41 0 45 2 45 24 0 22 -5 25 -42 28 l-43 3 -3 48 c-3 45 -5 47 -33 47 -28 0
-29 -1 -29 -50 l0 -50 -85 0 c-49 0 -85 4 -85 10 0 5 45 68 100 139 55 71 100
132 100 135 0 3 -12 6 -27 5 -22 0 -38 -14 -78 -66z"/>
<path d="M8370 1235 c0 -23 3 -25 50 -25 l50 0 0 -201 0 -200 28 3 27 3 3 223
2 222 -80 0 c-79 0 -80 0 -80 -25z"/>
<path d="M5193 1134 c-10 -26 11 -49 43 -49 26 0 29 4 29 30 0 27 -4 30 -33
33 -23 2 -34 -2 -39 -14z"/>
<path d="M7487 1013 c-4 -3 -7 -15 -7 -25 0 -16 9 -18 85 -18 84 0 85 0 85 25
0 25 -1 25 -78 25 -43 0 -82 -3 -85 -7z"/>
<path d="M5200 875 c-26 -32 13 -81 48 -59 21 14 28 54 10 65 -20 13 -44 11
-58 -6z"/>
</g>
</svg>
